<?xml version="1.0" encoding="UTF-8"?>
<!DOCTYPE svg PUBLIC "-//W3C//DTD SVG 1.1//EN" "http://www.w3.org/Graphics/SVG/1.1/DTD/svg11.dtd">
<!-- Creator: CorelDRAW -->
<svg xmlns="http://www.w3.org/2000/svg" xml:space="preserve" width="43.3493mm" height="43.3493mm" version="1.1" style="shape-rendering:geometricPrecision; text-rendering:geometricPrecision; image-rendering:optimizeQuality; fill-rule:evenodd; clip-rule:evenodd"
viewBox="0 0 674.34 674.34"
 xmlns:xlink="http://www.w3.org/1999/xlink"
 xmlns:xodm="http://www.corel.com/coreldraw/odm/2003">
 <defs>
  <style type="text/css">
   <![CDATA[
    .fil0 {fill:none}
    .fil2 {fill:#81BF3D}
    .fil1 {fill:#DCE133}
   ]]>
  </style>
 </defs>
 <g id="Layer_x0020_1">
  <metadata id="CorelCorpID_0Corel-Layer"/>
  <g id="_105553204847136">
   <rect class="fil0" x="-0" y="0" width="674.34" height="674.34"/>
   <g>
    <path class="fil1" d="M292.57 45.49c-48.58,1.03 -110.47,15.71 -125.77,68.89 51.73,-0.01 102.45,-2.61 154.25,1.35 120.18,9.18 211.93,52.32 231.98,182.37 3.65,23.65 4.78,49.95 3.66,73.83 -9.85,0.48 -20.19,0.54 -30.1,0.76 -46.5,1.07 -93.49,1.98 -139.99,0.93 -28.47,-0.64 -51.59,-4.29 -76.91,-17.41 -18.76,-9.72 -27.67,-15.78 -50.11,-12.37 -7.36,1.12 -14.55,3.08 -21.64,5.32 14.19,47.82 37.22,77.94 87.91,86.93 29.29,5.2 65.11,3.44 94.95,2.52 30.54,-0.94 60.59,-1.87 91.13,0.15 17.76,1.17 37.92,3.5 55.56,2.57 32.2,-1.7 45.72,-15.66 52.42,-46.79 25,-116.25 -17.89,-216.38 -115.5,-283.14 -60.3,-41.24 -138.52,-67.25 -211.85,-65.91z"/>
    <path class="fil2" d="M501.79 572.04c-86.85,-15.76 -405.9,52.07 -394.91,-259.1 216.24,-31.01 243.19,27.47 319.05,23.72 -21.67,-138.04 -252.95,-96.26 -374.2,-91.57 -48.9,423.6 332.16,433.67 450.06,326.95z"/>
    <path class="fil1" d="M473.34 339.67c15.23,-0.71 30.61,-1.35 45.82,-2.23 2.85,-0.16 2.09,0.54 2.41,-2.87 7.72,-81.81 -28.45,-136.32 -104.4,-164.8 -78.68,-29.51 -180.36,-26.02 -263.8,-25.21 -5.55,0.05 -11.77,-0.12 -17.22,0.13 -32.38,1.49 -53.31,35.16 -56.51,64.57 64.08,0.04 128.33,-0.56 192.39,0.17 27.13,0.31 55.97,0.69 82.96,3.43 20.21,2.05 44.99,5.5 59.6,21.09 10.22,10.91 17.76,30.52 24,44.19 9.6,21.04 19.98,40.32 32.76,59.65 0.81,1.23 0.67,1.73 1.99,1.89z"/>
    <path class="fil2" d="M305.25 464.47c-143.28,-30.03 -34.48,-124.92 -166.83,-121.94 7.43,85.99 64.43,160.44 129.47,180.88 58.96,18.54 216.7,10.73 288.17,10.73 16.09,-41.89 28.58,-28.13 24.38,-62.52 -82.63,-9.14 -200.62,8.48 -275.2,-7.15z"/>
   </g>
  </g>
 </g>
</svg>
